# xmcd CD database file
#
# Track frame offsets:
#	150
#	24495
#	39872
#	67902
#	82302
#	99787
#	122167
#	147552
#	166759
#	185137
#	205055
#	224800
#	245600
#
# Disc length: 3598 seconds
#
# Revision: 0
# Processed by: cddbd v1.5.2PL0 Copyright (c) Steve Scherf et al.
# Submitted via: CDex 1.51
#
DISCID=bc0e0c0d
DTITLE=Various Artist - Romantic Christmas In Jazz
DYEAR=2004
DGENRE=Jazz
TTITLE0=Rie Akagi - White Christmas
TTITLE1=Makoto Aoyagi - Sleigh Ride
TTITLE2=Rie Akagi - Feliz Navidad
TTITLE3=Hiroaki Miyano - Rudolph, The Red-Nosed Reindeer
TTITLE4=Gerald Albright - Your Smiling Face
TTITLE5=Florida Purim and Airto Moreira - Only A Dream In Rio
TTITLE6=Les McCann - Nobody But You
TTITLE7=Tower of Power - Streamroller
TTITLE8=Dori Caymmi - I Believe I Can Fly
TTITLE9=Dori Caymmi - It Might Be You
TTITLE10=Dori Caymmi - Rain Drops Keep Falling On My Head
TTITLE11=Larry Carlton - I Just Wasn't Made For These Times
TTITLE12=Yellowjackets - God Only Knows
EXTD=YEAR: 2004
EXTT0=
EXTT1=
EXTT2=
EXTT3=
EXTT4=
EXTT5=
EXTT6=
EXTT7=
EXTT8=
EXTT9=
EXTT10=
EXTT11=
EXTT12=
PLAYORDER=
